<?xml version="1.0" encoding="utf-8"?>
<!-- Generator: Adobe Illustrator 24.3.0, SVG Export Plug-In . SVG Version: 6.00 Build 0)  -->
<svg version="1.1" id="Capa_1" xmlns="http://www.w3.org/2000/svg" xmlns:xlink="http://www.w3.org/1999/xlink" x="0px" y="0px"
	 viewBox="0 0 512 512" style="enable-background:new 0 0 512 512;" xml:space="preserve">
<style type="text/css">
	.st0{fill:#214F7B;}
</style>
<g>
	<g>
		<path class="st0" d="M352,0H160c-22.1,0-40,17.9-40,40v432c0,22.1,17.9,40,40,40h192c22.1,0,40-17.9,40-40V40
			C392,17.9,374.1,0,352,0z M376,472c0,13.3-10.7,24-24,24H160c-13.3,0-24-10.7-24-24v-48h240V472z M376,408H136V88h240V408z
			 M376,72H136V40c0-13.3,10.7-24,24-24h192c13.3,0,24,10.7,24,24V72z"/>
	</g>
</g>
<g>
	<g>
		<path class="st0" d="M256,432c-13.3,0-24,10.7-24,24s10.7,24,24,24s24-10.7,24-24S269.3,432,256,432z M256,464c-4.4,0-8-3.6-8-8
			s3.6-8,8-8s8,3.6,8,8S260.4,464,256,464z"/>
	</g>
</g>
<g>
	<g>
		<path class="st0" d="M288,40h-64c-4.4,0-8,3.6-8,8s3.6,8,8,8h64c4.4,0,8-3.6,8-8S292.4,40,288,40z"/>
	</g>
</g>
<g>
	<g>
		<path class="st0" d="M352,376h-8c-4.4,0-8,3.6-8,8s3.6,8,8,8h8c4.4,0,8-3.6,8-8S356.4,376,352,376z"/>
	</g>
</g>
<g>
	<g>
		<path class="st0" d="M320,376h-8c-4.4,0-8,3.6-8,8s3.6,8,8,8h8c4.4,0,8-3.6,8-8S324.4,376,320,376z"/>
	</g>
</g>
<g>
	<g>
		<path class="st0" d="M288,376h-8c-4.4,0-8,3.6-8,8s3.6,8,8,8h8c4.4,0,8-3.6,8-8S292.4,376,288,376z"/>
	</g>
</g>
</svg>
