<?xml version="1.0" encoding="utf-8"?>
<!-- Generator: Adobe Illustrator 24.3.0, SVG Export Plug-In . SVG Version: 6.00 Build 0)  -->
<svg version="1.1" id="Capa_1" xmlns="http://www.w3.org/2000/svg" xmlns:xlink="http://www.w3.org/1999/xlink" x="0px" y="0px"
	 viewBox="0 0 512 512" style="enable-background:new 0 0 512 512;" xml:space="preserve">
<style type="text/css">
	.st0{fill:#214F7B;}
</style>
<g>
	<path class="st0" d="M496,424h-60c15.5,0,28-12.5,28-28v-8c0-15.5-12.5-28-28-28h-19.5l-21.8-100.3c-2.3-24.7-23-43.6-47.8-43.7
		h-43v-8c0-0.9-0.2-1.9-0.5-2.8c7.7-8.1,13-18.3,15.3-29.2h1.2c13.2,0,24-10.8,24-24v-52c-0.1-46.4-37.6-83.9-84-84h-8
		c-46.4,0.1-83.9,37.6-84,84v52c0,13.2,10.8,24,24,24h1.2c2.3,11,7.5,21.1,15.3,29.2c-0.3,0.9-0.5,1.8-0.5,2.8v8h-43
		c-24.8,0.1-45.5,19-47.8,43.7L98.9,344H92c-2.2,0-4.5,0.3-6.7,0.8l-22.2-44.4c-2-4-6.8-5.6-10.7-3.6c-4,2-5.6,6.8-3.6,10.7l0,0
		l22.7,45.4c-4.8,5.2-7.5,12-7.5,19.1v24c0,15.5,12.5,28,28,28H16c-4.4,0-8,3.6-8,8v32c0,4.4,3.6,8,8,8h8v16c0,4.4,3.6,8,8,8h448
		c4.4,0,8-3.6,8-8v-16h8c4.4,0,8-3.6,8-8v-32C504,427.6,500.4,424,496,424z M412,376h24c6.6,0,12,5.4,12,12v8c0,6.6-5.4,12-12,12
		h-24c-6.6,0-12-5.4-12-12v-8C400,381.4,405.4,376,412,376z M328,152c0,4.4-3.6,8-8,8v-32h8V152z M192,160c-4.4,0-8-3.6-8-8v-24h8
		V160z M184,112v-12c0-37.5,30.5-68,68-68h8c37.5,0,68,30.5,68,68v12h-8v-4c0-1.5-0.1-3.1-0.2-4.6c-0.3-4.4-4.2-7.7-8.6-7.4
		c-0.8,0.1-1.6,0.2-2.4,0.5C270.8,111.8,200.7,112,200,112H184z M208,164v-36.1c18.1-0.4,62.9-2.6,96-12.6V164c0,24.3-19.7,44-44,44
		h-8C227.7,208,208,188.3,208,164z M288,217v7c0,13.2-14.4,24-32,24s-32-10.8-32-24v-7c8.6,4.6,18.2,7,28,7h8
		C269.8,224,279.4,221.6,288,217L288,217z M133,262.6c0.1-0.4,0.1-0.7,0.2-1.1c1.3-16.6,15.2-29.5,31.9-29.5H209
		c4.5,18.2,23.9,32,47,32s42.6-13.8,47-32H347c16.7,0.1,30.6,12.9,31.9,29.5c0,0.4,0.1,0.7,0.2,1.1l21.7,99.8
		c-10.1,4.5-16.7,14.5-16.7,25.6v8c0,15.5,12.5,28,28,28h-36V300c0-15.5-12.5-28-28-28H164c-15.5,0-28,12.5-28,28v124h-36
		c15.5,0,28-12.5,28-28v-24c0-9.8-5.2-18.9-13.6-24L133,262.6z M360,300v124H152V300c0-6.6,5.4-12,12-12h184
		C354.6,288,360,293.4,360,300z M80,396v-24c0-6.6,5.4-12,12-12h8c6.6,0,12,5.4,12,12v24c0,6.6-5.4,12-12,12h-8
		C85.4,408,80,402.6,80,396z M472,480H40v-8h432V480z M488,456H24v-16h464V456z"/>
	<path class="st0" d="M256,336c-17.7,0-32,14.3-32,32s14.3,32,32,32s32-14.3,32-32C288,350.3,273.7,336,256,336z M256,384
		c-8.8,0-16-7.2-16-16s7.2-16,16-16c8.8,0,16,7.2,16,16C272,376.8,264.8,384,256,384z"/>
	<circle class="st0" cx="232" cy="144" r="8"/>
	<circle class="st0" cx="280" cy="144" r="8"/>
	<path class="st0" d="M248,192h16c4.4,0,8-3.6,8-8s-3.6-8-8-8h-16c-4.4,0-8,3.6-8,8S243.6,192,248,192z"/>
</g>
</svg>
