<?xml version="1.0" encoding="utf-8"?>
<!-- Generator: Adobe Illustrator 24.3.0, SVG Export Plug-In . SVG Version: 6.00 Build 0)  -->
<svg version="1.1" id="Capa_1" xmlns="http://www.w3.org/2000/svg" xmlns:xlink="http://www.w3.org/1999/xlink" x="0px" y="0px"
	 viewBox="0 0 512 512" style="enable-background:new 0 0 512 512;" xml:space="preserve">
<style type="text/css">
	.st0{fill:#214F7B;}
</style>
<g>
	<path class="st0" d="M334.6,299.5l-72-104c-2.5-3.6-7.5-4.5-11.1-2c-0.8,0.5-1.5,1.2-2,2l-72,104c-1.4,2.1-1.8,4.7-1,7.1l20.5,61.5
		H192c-4.4,0-8,3.6-8,8v24c0,4.4,3.6,8,8,8h8v88c0,4.4,3.6,8,8,8h96c4.4,0,8-3.6,8-8v-88h8c4.4,0,8-3.6,8-8v-24c0-4.4-3.6-8-8-8
		h-4.9l20.5-61.5C336.4,304.1,336,301.5,334.6,299.5z M256,288c4.4,0,8,3.6,8,8s-3.6,8-8,8s-8-3.6-8-8C248,291.6,251.6,288,256,288z
		 M296,488h-80v-80h80V488z M312,392H200v-8h112V392z M298.2,368h-84.5l-20.9-62.7l55.1-79.7V272c0,0.4,0,0.9,0.1,1.3
		c-12.5,4.4-19.1,18-14.8,30.5c4.4,12.5,18,19.1,30.5,14.8c12.5-4.4,19.1-18,14.8-30.5c-2.4-6.9-7.9-12.4-14.8-14.8
		c0.1-0.4,0.1-0.9,0.1-1.3v-46.4l55.1,79.7L298.2,368z"/>
	<path class="st0" d="M496,96h-32c-4.4,0-8,3.6-8,8v8.1c-0.3,0-0.7-0.1-1-0.1H280v-8c0-4.4-3.6-8-8-8h-8V56h8c4.4,0,8-3.6,8-8V16
		c0-4.4-3.6-8-8-8h-32c-4.4,0-8,3.6-8,8v32c0,4.4,3.6,8,8,8h8v40h-8c-4.4,0-8,3.6-8,8v8H56v-8c0-4.4-3.6-8-8-8H16c-4.4,0-8,3.6-8,8
		v32c0,4.4,3.6,8,8,8h32c4.4,0,8-3.6,8-8v-8h132.3c-10.6,7-20,15.5-28,25.4C139.8,178.2,128,209.8,128,240h-8c-4.4,0-8,3.6-8,8v32
		c0,4.4,3.6,8,8,8h32c4.4,0,8-3.6,8-8v-32c0-4.4-3.6-8-8-8h-8c0-59.3,45.6-106.1,88-111.5v7.5c0,4.4,3.6,8,8,8h32c4.4,0,8-3.6,8-8
		v-7.5c21.7,2.6,42.5,15.6,59.2,37.2c16.3,21.1,26.7,48.3,28.5,74.3H360c-4.4,0-8,3.6-8,8v32c0,4.4,3.6,8,8,8h32c4.4,0,8-3.6,8-8
		v-32c0-4.4-3.6-8-8-8h-8.2c-1.8-29.7-13.1-60-31.9-84.1c-8.2-10.8-18.2-20.2-29.4-27.9H455c0.3,0,0.7,0,1-0.1v8.1c0,4.4,3.6,8,8,8
		h32c4.4,0,8-3.6,8-8v-32C504,99.6,500.4,96,496,96z M40,128H24v-16h16V128z M144,272h-16v-16h16V272z M248,24h16v16h-16V24z
		 M264,128h-16v-16h16V128z M368,256h16v16h-16V256z M488,128h-16v-16h16V128z"/>
</g>
</svg>
