<?xml version="1.0" encoding="utf-8"?>
<!-- Generator: Adobe Illustrator 24.3.0, SVG Export Plug-In . SVG Version: 6.00 Build 0)  -->
<svg version="1.1" id="Capa_1" xmlns="http://www.w3.org/2000/svg" xmlns:xlink="http://www.w3.org/1999/xlink" x="0px" y="0px"
	 viewBox="0 0 194.8 194.8" style="enable-background:new 0 0 194.8 194.8;" xml:space="preserve">
<style type="text/css">
	.st0{fill:#EA5853;}
</style>
<g>
	<path class="st0" d="M185.8,2.2h-57c-5,0-9,4-9,9s4,9,9,9h35.3l-86.3,86.3c-3.5,3.5-3.5,9.2,0,12.7c1.8,1.8,4.1,2.6,6.4,2.6
		s4.6-0.9,6.4-2.6l86.3-86.3v35.3c0,5,4,9,9,9s9-4,9-9v-57C194.8,6.2,190.8,2.2,185.8,2.2z"/>
	<path class="st0" d="M149,77.2c-5,0-9,4-9,9v88.5H18v-122h93.8c5,0,9-4,9-9s-4-9-9-9H9c-5,0-9,4-9,9v140c0,5,4,9,9,9h140
		c5,0,9-4,9-9V86.2C158,81.2,154,77.2,149,77.2z"/>
</g>
</svg>
