<svg id="Capa_1" data-name="Capa 1" xmlns="http://www.w3.org/2000/svg" viewBox="0 0 74.08 70.38"><defs><style>.cls-1{fill:#525252;}</style></defs><path class="cls-1" d="M37,3.1A32.09,32.09,0,1,0,69.13,35.19,32.13,32.13,0,0,0,37,3.1ZM48.21,59.78c.49-.8,1-1.66,1.42-2.57a39,39,0,0,0,2.58-6.85,39.75,39.75,0,0,0,6.85-2.57c.91-.46,1.77-.93,2.56-1.43A27.16,27.16,0,0,1,48.21,59.78ZM12.45,46.36c.8.5,1.65,1,2.57,1.43a39.75,39.75,0,0,0,6.85,2.57,39.75,39.75,0,0,0,2.57,6.85c.45.91.93,1.77,1.43,2.57A27.22,27.22,0,0,1,12.45,46.36ZM25.87,10.6c-.5.8-1,1.66-1.43,2.57A39.75,39.75,0,0,0,21.87,20,39.75,39.75,0,0,0,15,22.59c-.92.46-1.77.93-2.57,1.43A27.22,27.22,0,0,1,25.87,10.6Zm37.51,22H54.12a58.89,58.89,0,0,0-.68-6.89C58.33,27.49,62,29.93,63.38,32.65Zm-9.94,12a58.51,58.51,0,0,0,.68-6.88h9.26C62,40.45,58.33,42.89,53.44,44.61ZM10.69,37.73H20a58.74,58.74,0,0,0,.67,6.88C15.75,42.89,12.12,40.45,10.69,37.73Zm9.94-12A58.91,58.91,0,0,0,20,32.65H10.69C12.12,29.93,15.75,27.49,20.63,25.76ZM49,32.65H39.57V23.19A52.64,52.64,0,0,1,48,24.25,53.68,53.68,0,0,1,49,32.65ZM48,46.13a53.81,53.81,0,0,1-8.41,1.06V37.73H49A53.68,53.68,0,0,1,48,46.13ZM25,37.73H34.5v9.46a53.68,53.68,0,0,1-8.4-1.06A52.52,52.52,0,0,1,25,37.73ZM26.1,24.25a52.52,52.52,0,0,1,8.4-1.06v9.46H25A52.52,52.52,0,0,1,26.1,24.25Zm13.47-6.14V8.84c2.73,1.43,5.17,5.06,6.89,9.94A60.92,60.92,0,0,0,39.57,18.11ZM34.5,8.84v9.27a61.15,61.15,0,0,0-6.89.67C29.34,13.9,31.78,10.27,34.5,8.84Zm0,43.43v9.26c-2.72-1.42-5.16-5.05-6.89-9.93A61.15,61.15,0,0,0,34.5,52.27Zm5.07,9.26V52.27a60.92,60.92,0,0,0,6.89-.67C44.74,56.48,42.3,60.11,39.57,61.53ZM59.06,22.59A39.75,39.75,0,0,0,52.21,20a39,39,0,0,0-2.58-6.85c-.45-.91-.93-1.77-1.42-2.57A27.16,27.16,0,0,1,61.62,24,28.06,28.06,0,0,0,59.06,22.59Z"/></svg>