<?xml version="1.0" encoding="utf-8"?>
<!-- Generator: Adobe Illustrator 24.3.0, SVG Export Plug-In . SVG Version: 6.00 Build 0)  -->
<svg version="1.1" id="Capa_1" xmlns="http://www.w3.org/2000/svg" xmlns:xlink="http://www.w3.org/1999/xlink" x="0px" y="0px"
	 viewBox="0 0 512 512" style="enable-background:new 0 0 512 512;" xml:space="preserve">
<style type="text/css">
	.st0{fill:#214F7B;}
</style>
<desc>Created with Sketch.</desc>
<g id="Page-1">
	<g id="_x30_35---Creative-Thinking">
		<path id="Shape" class="st0" d="M441.8,375.5c2.7-14.4,2.6-29.2-0.2-43.5l39.1-94.3c0-0.1,0-0.1,0-0.2
			c6.3-17.3,15.6-33.5,27.4-47.6c2.9-3.1,4.1-7.5,3.1-11.6l-16-69.2c-0.2-0.7-0.5-1.4-0.9-2.1c-0.1-0.1-0.1-0.3-0.2-0.4
			s-0.4-0.4-0.5-0.6c-0.3-0.5-0.8-1-1.2-1.4c-0.3-0.2-0.6-0.4-0.9-0.6c-0.4-0.3-0.9-0.6-1.3-0.8c-0.6-0.2-1.3-0.4-2-0.5
			c-0.2,0-0.4-0.1-0.6-0.1c-1.6-0.1-3.3,0.3-4.7,1c-0.1,0.1-0.3,0.1-0.4,0.2h-0.1l-60.3,37.6c-3.6,2.3-5.9,6.2-6,10.5
			c-1.7,18.4-6.5,36.4-14.3,53.2v0.1l-19.5,47.2c-9.6-5.1-19.9-8.8-30.5-11c4-27.8,5.5-55.9,4.4-83.9c15.9-19.1,23.5-43.7,21.2-68.4
			c-5.3-49.7-50.3-85.6-52.2-87.2c-2.9-2.3-6.9-2.4-10-0.4s-4.5,5.8-3.6,9.3c4.4,16.5,0.6,33.9-31.9,69.7
			c-14.6,14.1-19.2,35.6-11.7,54.4c2.9,7.2,7,13.8,12.2,19.6c-2.1,13.2-3.7,25.7-4.8,37.8c-1.9,20.1-2.4,40.3-1.5,60.5
			c-7.6,4.1-14.7,9.1-21.2,14.8l-41.4-177c0-0.2-0.2-0.3-0.2-0.5c-0.1-0.6-0.3-1.1-0.6-1.6l-42.3-78.1c-4.2-7.8-13.2-11.8-21.8-9.8
			s-14.9,9.6-15.2,18.5l-3.2,88.7c0,0.6,0.1,1.3,0.2,1.9c0,0.1,0,0.3,0,0.4l42.2,180.2c-6.7,0.3-13.3,1.3-19.7,2.9l-46.4-112.2
			c-3.7-8.6-13.6-12.6-22.3-9.1l-71,29.4C2.3,205-1.8,215,1.8,223.7l63,152c-36.9,1.9-65.6,32.9-64.6,69.9S31.3,512,68.3,512h375.5
			c24.4-0.4,46.7-13.7,58.6-35c11.9-21.3,11.5-47.3-1-68.3C488.9,387.8,466.1,375.1,441.8,375.5z M433.1,154.6l35.8-22.3l-12.7,30.6
			c-1.8,4.4,0.3,9.3,4.6,11.2c4.4,1.8,9.3-0.3,11.2-4.6l12.7-30.6l9.5,41.1c-10.1,12.4-18.5,26.1-24.7,40.8
			c-8.9,4.1-19.1,4.3-28.2,0.6c-9.1-3.7-16.1-11.1-19.5-20.3C427.6,186.1,431.5,170.5,433.1,154.6z M413.4,221.6
			c5.6,6.9,13,12.2,21.3,15.5c6.6,2.8,13.7,4.3,20.9,4.4c1.7,0,3.5-0.1,5.2-0.3l-27.2,65.7c-8.2-18-20.8-33.6-36.6-45.3L413.4,221.6
			z M296.5,160.6l42.9,2.6c0.3,8,0.2,16.2-0.1,24.6c-14.3,1-28.6,0.3-42.8-2.1c-1.1-0.2-2.1-0.3-3.2-0.4
			C294.2,177.3,295.3,169.2,296.5,160.6L296.5,160.6z M292.5,91.9c22.7-25,34.4-44.2,37.1-62.3c16.3,16.8,27,38.1,30.8,61.2
			c1.8,20.1-4.4,40-17.3,55.6c-16.9-1-33.5-2-50-3.1c-7.1-6.6-11.2-15.8-11.3-25.5C281.7,108,285.5,98.7,292.5,91.9L292.5,91.9z
			 M291.8,202.4l2.5,0.3c11,1.7,22.1,2.6,33.2,2.8c3.5,0,7.3-0.3,11-0.6c-0.8,11-2,22.5-3.7,34.3c-2.1-0.1-4.2-0.3-6.3-0.3
			c-12.9,0-25.7,2.2-37.8,6.5C290.3,231.1,290.7,216.7,291.8,202.4L291.8,202.4z M225.8,302.2l-24.4-104c-1.1-4.5-5.7-7.3-10.2-6.2
			c-4.5,1.1-7.4,5.6-6.4,10.1l21.9,93.6c-6-2.2-12.3-3.7-18.6-4.6l-37.5-159.8c5.2,2.4,10.9,3.6,16.7,3.6c0.5,0,1.1-0.1,1.7-0.1
			l6,25.8c0.7,3,2.9,5.4,5.8,6.4c2.9,0.9,6.2,0.2,8.4-2c2.2-2.1,3.2-5.3,2.4-8.3l-6-25.8c5.8-2.6,10.9-6.5,14.9-11.3l38.1,162.8
			C233.7,288.4,229.4,295.1,225.8,302.2z M173.7,117c-10.9,2.1-22.1-2.3-28.5-11.4l1.1-30.1c3,0.6,6,0.8,9,0.9c2.9,0,5.8-0.3,8.7-1
			c5.8-1.5,11.1-4.2,15.8-7.9l14.4,26.5C192.4,105.1,184.4,114,173.7,117L173.7,117z M150.3,17.3c1.2-0.3,2.4,0.3,2.9,1.3l18.3,33.8
			c-3.3,3-7.2,5.2-11.5,6.4c-4.4,0.8-8.9,0.6-13.1-0.6l1.4-38.5C148.3,18.6,149.1,17.6,150.3,17.3z M88.5,187.7l6.5,15.8l-31.6,13.1
			c-3.7,1.6-5.9,5.6-5.1,9.5c0.8,4,4.3,6.8,8.3,6.9c1.1,0,2.2-0.2,3.3-0.6l31.6-13.1l6.5,15.8l-15.8,6.5c-3.8,1.6-5.9,5.6-5.1,9.6
			c0.8,4,4.3,6.9,8.4,6.9c1.1,0,2.2-0.2,3.3-0.6l15.8-6.5l6.5,15.8l-31.6,13.1c-3.8,1.6-5.9,5.6-5.1,9.6c0.8,4,4.3,6.9,8.4,6.9
			c1.1,0,2.2-0.2,3.3-0.6l31.6-13.1l6.9,16.7c-27.8,12.7-48.2,37.5-55.3,67.3L17.5,217.1L88.5,187.7z M443.7,494.9H68.3
			c-28.3,0-51.2-22.9-51.2-51.2c0-28.3,22.9-51.2,51.2-51.2c4.9,0,9.9,0.7,14.6,2.1c2.6,0.8,5.3,0.3,7.5-1.3
			c2.2-1.6,3.5-4.1,3.5-6.7c0.6-30.4,18.2-57.9,45.5-71.3c27.3-13.3,59.8-10.2,84.2,8c2.1,1.6,4.9,2.1,7.5,1.3s4.6-2.7,5.6-5.2
			c16.7-44.4,62.7-70.6,109.4-62.1c46.7,8.5,80.6,49.2,80.6,96.6c0,9.8-1.4,19.5-4.3,28.8c-0.9,2.9-0.2,6.1,1.9,8.3
			c2.1,2.2,5.1,3.2,8.1,2.6c3.7-0.8,7.6-1.2,11.4-1.2c28.3,0,51.2,22.9,51.2,51.2C494.9,472,472,494.9,443.7,494.9z"/>
		<path id="Shape_1_" class="st0" d="M330.1,134c2.7,0,5.2-1.2,6.8-3.4c10.7-14.4,14.8-32.6,11.3-50.2c-0.7-3-3-5.4-6-6.2
			c-3-0.8-6.2,0-8.4,2.2c-2.2,2.2-3,5.4-2.1,8.4c2,12.5-1,25.3-8.5,35.5c-1.9,2.6-2.3,6-0.8,8.9C324,132.1,326.9,134,330.1,134
			L330.1,134z"/>
		<path id="Shape_2_" class="st0" d="M318.9,392.5c-6.3,0-12.6,1.5-18.3,4.3c-15.4-21-44-27.2-66.6-14.3
			c-22.6,12.9-32,40.6-21.8,64.6c1.3,3.1,4.4,5.2,7.9,5.2c1.1,0,2.3-0.2,3.3-0.7c2.1-0.9,3.7-2.6,4.6-4.7c0.8-2.1,0.8-4.4-0.1-6.5
			c-1.9-4.3-2.8-9-2.8-13.7c0-18.9,15.3-34.1,34.1-34.1c13.2-0.1,25.3,7.6,30.8,19.6c0.2,0.3,0.4,0.5,0.6,0.8
			c0.1,0.3,0.3,0.6,0.5,0.9c0.2,0.2,0.4,0.3,0.5,0.5c0.4,0.4,0.8,0.8,1.3,1.1c0.4,0.3,0.9,0.6,1.4,0.9c0.5,0.2,1,0.4,1.5,0.5
			c0.5,0.1,1.1,0.2,1.6,0.2c1.1,0,2.2-0.2,3.3-0.5c0.2,0,0.5-0.1,0.7-0.2c0.3-0.2,0.5-0.4,0.8-0.6c0.3-0.1,0.6-0.3,0.9-0.5
			c4.5-3.6,10.1-5.6,15.8-5.6c10,0,19,5.8,23.2,14.9c2,4.3,7,6.2,11.3,4.2s6.2-7,4.2-11.3C350.7,402.3,335.6,392.5,318.9,392.5z"/>
		<path id="Shape_3_" class="st0" d="M150.9,333.2c-1.3,0.4-31.4,10.8-31.4,42.2c0,4.7,3.8,8.5,8.5,8.5c4.7,0,8.5-3.8,8.5-8.5
			c0.7-11.9,8.5-22.2,19.8-26.1c4.5-1.5,6.9-6.4,5.4-10.8C160.2,334.1,155.4,331.7,150.9,333.2L150.9,333.2z"/>
		<path id="Shape_4_" class="st0" d="M271,324c0.7,0.2,1.4,0.3,2.1,0.3c3.9,0,7.3-2.7,8.3-6.5c3.9-15.9,18-27.3,34.4-27.7
			c4.7,0,8.5-3.8,8.5-8.6c0-4.7-3.8-8.5-8.6-8.5c-24.3,0.3-45.2,17-50.9,40.6C263.6,318.2,266.4,322.9,271,324z"/>
	</g>
</g>
</svg>
