<svg id="Design" xmlns="http://www.w3.org/2000/svg" viewBox="0 0 35 29"><defs><style>.cls-1{fill:#37618d;}</style></defs><path class="cls-1" d="M27.42,13.1c-7.82,0-7.83,7.79-7.83,7.83s-.53,7.8,7.83,7.8c0,0,6.29.36,6.92-4.6a.73.73,0,0,0-.72-.83H31.43a.72.72,0,0,0-.69.51c-.2.65-.87,1.69-3.2,1.69A3.32,3.32,0,0,1,24,22.79a.73.73,0,0,1,.72-.84h9.09a.72.72,0,0,0,.73-.69C34.63,19.16,34.25,13.1,27.42,13.1Zm-3,6.13a.43.43,0,0,1-.41-.56,3.5,3.5,0,0,1,3.45-2.58,2.88,2.88,0,0,1,3.06,2.65.42.42,0,0,1-.42.49Zm-9.39-1.82a.31.31,0,0,1-.05-.56,3.6,3.6,0,0,0,1.9-3.51c0-3.64-2.54-5.42-5.76-5.42H1.09a.54.54,0,0,0-.54.53V27.77a.54.54,0,0,0,.54.53H11.15s6.48.2,6.48-6C17.63,22.28,17.85,18.33,15.07,17.41ZM5.22,11.92a.39.39,0,0,1,.39-.38h5.55s1.43,0,1.43,2.12-.84,2.43-1.8,2.43H5.61a.39.39,0,0,1-.39-.39Zm5.64,12.76H5.61a.39.39,0,0,1-.39-.38V19.61a.39.39,0,0,1,.39-.38h5.55s2.15,0,2.14,2.8C13.3,24.41,11.7,24.66,10.86,24.68ZM23,8.73v1.74a.38.38,0,0,0,.39.39h7.64a.39.39,0,0,0,.39-.39V8.73a.39.39,0,0,0-.39-.38H23.42A.38.38,0,0,0,23,8.73Z"/></svg>