<svg id="Design" xmlns="http://www.w3.org/2000/svg" viewBox="0 0 35 29"><defs><style>.cls-1{fill:#7dd1f1;}</style></defs><path class="cls-1" d="M27.42,13.1c-7.82,0-7.83,7.79-7.83,7.83s-.53,7.8,7.83,7.8c0,0,6.29.36,6.92-4.6a.72.72,0,0,0-.62-.82H31.43a.72.72,0,0,0-.69.51c-.2.65-.87,1.69-3.2,1.69A3.32,3.32,0,0,1,24,22.79a.73.73,0,0,1,.61-.83h9.2a.72.72,0,0,0,.73-.69C34.63,19.16,34.25,13.1,27.42,13.1Zm-3,6.13A.43.43,0,0,1,24,18.8a.59.59,0,0,1,0-.13,3.5,3.5,0,0,1,3.45-2.58,2.88,2.88,0,0,1,3.06,2.65.41.41,0,0,1-.34.48H24.42ZM15,17.41a.32.32,0,0,1-.19-.4.36.36,0,0,1,.14-.16,3.61,3.61,0,0,0,1.9-3.51c0-3.64-2.54-5.42-5.76-5.42h-10a.55.55,0,0,0-.54.53V27.77a.55.55,0,0,0,.54.53H11.15s6.48.2,6.48-6c0,0,.22-4-2.56-4.89ZM5.22,11.92a.4.4,0,0,1,.39-.38h5.55s1.43,0,1.43,2.12-.84,2.43-1.8,2.43H5.61a.38.38,0,0,1-.39-.39h0Zm5.64,12.76H5.61a.4.4,0,0,1-.39-.38V19.61a.4.4,0,0,1,.39-.38h5.55s2.15,0,2.14,2.8C13.3,24.41,11.7,24.66,10.86,24.68ZM23,8.73v1.74a.38.38,0,0,0,.37.39H31a.38.38,0,0,0,.39-.39V8.73A.4.4,0,0,0,31,8.35H23.42a.38.38,0,0,0-.42.34Z"/></svg>