<svg id="Design" xmlns="http://www.w3.org/2000/svg" viewBox="0 0 30 29"><defs><style>.cls-1{fill:#37618d;}</style></defs><path class="cls-1" d="M22.31,5.29A1.69,1.69,0,1,0,24,7,1.69,1.69,0,0,0,22.31,5.29ZM14.8,7.46a7.1,7.1,0,1,0,7.1,7.09A7.1,7.1,0,0,0,14.8,7.46Zm0,11.64a4.55,4.55,0,1,1,4.55-4.55A4.55,4.55,0,0,1,14.8,19.1ZM29.12,8.66A8.66,8.66,0,0,0,20.47,0H9A8.66,8.66,0,0,0,.39,8.66V20.08A8.66,8.66,0,0,0,9,28.74H20.47a8.66,8.66,0,0,0,8.65-8.66ZM26.41,20.08A5.94,5.94,0,0,1,20.47,26H9A5.94,5.94,0,0,1,3.1,20.08V8.66A5.94,5.94,0,0,1,9,2.71H20.47a5.94,5.94,0,0,1,5.94,6Z"/></svg>