<svg id="Design" xmlns="http://www.w3.org/2000/svg" viewBox="0 0 31 29"><defs><style>.cls-1{fill:#37618d;}</style></defs><path class="cls-1" d="M30.26,17.58V28.26a.48.48,0,0,1-.48.48H24.27a.48.48,0,0,1-.48-.48V18.33c0-2.62-.93-4.4-3.28-4.4a3.53,3.53,0,0,0-3.31,2.36A4.47,4.47,0,0,0,17,17.87V28.26a.47.47,0,0,1-.48.47H11a.48.48,0,0,1-.48-.47c0-2.65.07-15.48,0-18.5A.47.47,0,0,1,11,9.28h5.5a.47.47,0,0,1,.48.48V12l0,.06h0V12a6.41,6.41,0,0,1,5.83-3.22c4.26,0,7.45,2.78,7.45,8.76ZM1,28.74H6.46a.48.48,0,0,0,.47-.48V9.76a.47.47,0,0,0-.47-.48H1a.47.47,0,0,0-.48.48v18.5A.48.48,0,0,0,1,28.74Z"/><path class="cls-1" d="M7,3.34A3.47,3.47,0,1,1,3.51-.12,3.46,3.46,0,0,1,7,3.34Z"/></svg>